<svg width="85" height="85" viewBox="0 0 85 85" fill="none" xmlns="http://www.w3.org/2000/svg">
<circle cx="42.5" cy="42.5" r="42.5" fill="#FACC15"/>
<path d="M36.75 43C40.7709 43 44.0417 39.7291 44.0417 35.7083C44.0417 31.6875 40.7709 28.4166 36.75 28.4166C32.7292 28.4166 29.4584 31.6875 29.4584 35.7083C29.4584 39.7291 32.7292 43 36.75 43ZM36.75 32.5833C38.4792 32.5833 39.875 33.9791 39.875 35.7083C39.875 37.4375 38.4792 38.8333 36.75 38.8333C35.0209 38.8333 33.625 37.4375 33.625 35.7083C33.625 33.9791 35.0209 32.5833 36.75 32.5833ZM36.75 46.6458C31.875 46.6458 22.1667 49.0833 22.1667 53.9375V55.5C22.1667 56.6458 23.1042 57.5833 24.25 57.5833H49.25C50.3959 57.5833 51.3334 56.6458 51.3334 55.5V53.9375C51.3334 49.0833 41.625 46.6458 36.75 46.6458ZM27.0417 53.4166C28.7917 52.2083 33.0209 50.8125 36.75 50.8125C40.4792 50.8125 44.7084 52.2083 46.4584 53.4166H27.0417ZM51.4167 46.7708C53.8334 48.5208 55.5 50.8541 55.5 53.9375V57.5833H61.75C62.8959 57.5833 63.8334 56.6458 63.8334 55.5V53.9375C63.8334 49.7291 56.5417 47.3333 51.4167 46.7708ZM49.25 43C53.2709 43 56.5417 39.7291 56.5417 35.7083C56.5417 31.6875 53.2709 28.4166 49.25 28.4166C48.125 28.4166 47.0834 28.6875 46.125 29.1458C47.4375 31 48.2084 33.2708 48.2084 35.7083C48.2084 38.1458 47.4375 40.4166 46.125 42.2708C47.0834 42.7291 48.125 43 49.25 43Z" fill="white"/>
</svg>
