<svg width="71" height="71" viewBox="0 0 71 71" fill="none" xmlns="http://www.w3.org/2000/svg">
<circle cx="35.5" cy="35.5" r="35.5" fill="#DFDEF0"/>
<path d="M27 30C26.45 30 26 29.55 26 29V26C26 25.45 26.45 25 27 25H30C30.55 25 31 25.45 31 26C31 26.55 30.55 27 30 27H28V29C28 29.55 27.55 30 27 30ZM41 26C41 26.55 41.45 27 42 27H44V29C44 29.55 44.45 30 45 30C45.55 30 46 29.55 46 29V26C46 25.45 45.55 25 45 25H42C41.45 25 41 25.45 41 26ZM27 42C26.45 42 26 42.45 26 43V46C26 46.55 26.45 47 27 47H30C30.55 47 31 46.55 31 46C31 45.45 30.55 45 30 45H28V43C28 42.45 27.55 42 27 42ZM41 46C41 46.55 41.45 47 42 47H45C45.55 47 46 46.55 46 46V43C46 42.45 45.55 42 45 42C44.45 42 44 42.45 44 43V45H42C41.45 45 41 45.45 41 46ZM43 42C43 43.1 42.1 44 41 44H31C29.9 44 29 43.1 29 42V30C29 28.9 29.9 28 31 28H41C42.1 28 43 28.9 43 30V42ZM33 33C33 33.55 33.45 34 34 34H38C38.55 34 39 33.55 39 33C39 32.45 38.55 32 38 32H34C33.45 32 33 32.45 33 33ZM33 36C33 36.55 33.45 37 34 37H38C38.55 37 39 36.55 39 36C39 35.45 38.55 35 38 35H34C33.45 35 33 35.45 33 36ZM33 39C33 39.55 33.45 40 34 40H38C38.55 40 39 39.55 39 39C39 38.45 38.55 38 38 38H34C33.45 38 33 38.45 33 39Z" fill="#4F46E5"/>
</svg>
