<svg width="71" height="71" viewBox="0 0 71 71" fill="none" xmlns="http://www.w3.org/2000/svg">
<circle cx="35.5" cy="35.5" r="35.5" fill="#DFDEF0"/>
<path d="M36 35.55C34.18 33.85 31.88 32.66 29.32 32.2C28.11 31.99 27 32.95 27 34.18V40.42C27 42.1 27.72 42.98 28.71 43.11C31.21 43.43 33.48 44.46 35.34 45.98C35.69 46.27 36.26 46.3 36.61 46.02C38.48 44.49 40.77 43.44 43.29 43.12C44.23 42.99 45 42.06 45 41.1V34.18C45 32.95 43.89 31.99 42.68 32.2C40.12 32.66 37.82 33.85 36 35.55ZM36 32C37.66 32 39 30.66 39 29C39 27.34 37.66 26 36 26C34.34 26 33 27.34 33 29C33 30.66 34.34 32 36 32Z" fill="#4F46E5"/>
</svg>
