<svg width="85" height="85" viewBox="0 0 85 85" fill="none" xmlns="http://www.w3.org/2000/svg">
<circle cx="42.5" cy="42.5" r="42.5" fill="#FACC15"/>
<path d="M39.3541 45.0833C39.3541 46.5208 38.1875 47.6875 36.75 47.6875C35.3125 47.6875 34.1458 46.5208 34.1458 45.0833C34.1458 43.6458 35.3125 42.4791 36.75 42.4791C38.1875 42.4791 39.3541 43.6458 39.3541 45.0833ZM49.25 42.4791C47.8125 42.4791 46.6458 43.6458 46.6458 45.0833C46.6458 46.5208 47.8125 47.6875 49.25 47.6875C50.6875 47.6875 51.8541 46.5208 51.8541 45.0833C51.8541 43.6458 50.6875 42.4791 49.25 42.4791ZM63.8333 43C63.8333 54.5 54.5 63.8333 43 63.8333C31.5 63.8333 22.1666 54.5 22.1666 43C22.1666 31.5 31.5 22.1666 43 22.1666C54.5 22.1666 63.8333 31.5 63.8333 43ZM59.6666 43C59.6666 41.375 59.4166 39.8125 58.9791 38.3333C57.5208 38.6458 56.0208 38.8333 54.4583 38.8333C47.9375 38.8333 42.125 35.8333 38.2916 31.1458C36.1041 36.4791 31.75 40.6666 26.3333 42.7083C26.3541 42.7916 26.3333 42.8958 26.3333 43C26.3333 52.1875 33.8125 59.6666 43 59.6666C52.1875 59.6666 59.6666 52.1875 59.6666 43Z" fill="white"/>
</svg>
