<svg width="85" height="85" viewBox="0 0 85 85" fill="none" xmlns="http://www.w3.org/2000/svg">
<circle cx="42.5" cy="42.5" r="42.5" fill="#FACC15"/>
<path d="M43 24.25C32.6458 24.25 24.25 32.6458 24.25 43C24.25 53.3542 32.6458 61.75 43 61.75C44.7292 61.75 46.125 60.3542 46.125 58.625C46.125 57.8125 45.8125 57.0833 45.3125 56.5208C44.8333 55.9792 44.5208 55.25 44.5208 54.4583C44.5208 52.7292 45.9167 51.3333 47.6458 51.3333H51.3333C57.0833 51.3333 61.75 46.6667 61.75 40.9167C61.75 31.7083 53.3542 24.25 43 24.25ZM31.5417 43C29.8125 43 28.4167 41.6042 28.4167 39.875C28.4167 38.1458 29.8125 36.75 31.5417 36.75C33.2708 36.75 34.6667 38.1458 34.6667 39.875C34.6667 41.6042 33.2708 43 31.5417 43ZM37.7917 34.6667C36.0625 34.6667 34.6667 33.2708 34.6667 31.5417C34.6667 29.8125 36.0625 28.4167 37.7917 28.4167C39.5208 28.4167 40.9167 29.8125 40.9167 31.5417C40.9167 33.2708 39.5208 34.6667 37.7917 34.6667ZM48.2083 34.6667C46.4792 34.6667 45.0833 33.2708 45.0833 31.5417C45.0833 29.8125 46.4792 28.4167 48.2083 28.4167C49.9375 28.4167 51.3333 29.8125 51.3333 31.5417C51.3333 33.2708 49.9375 34.6667 48.2083 34.6667ZM54.4583 43C52.7292 43 51.3333 41.6042 51.3333 39.875C51.3333 38.1458 52.7292 36.75 54.4583 36.75C56.1875 36.75 57.5833 38.1458 57.5833 39.875C57.5833 41.6042 56.1875 43 54.4583 43Z" fill="white"/>
</svg>
