<svg width="71" height="71" viewBox="0 0 71 71" fill="none" xmlns="http://www.w3.org/2000/svg">
<circle cx="35.5" cy="35.5" r="35.5" fill="#DFDEF0"/>
<path d="M47 36L44.56 33.21L44.9 29.52L41.29 28.7L39.4 25.5L36 26.96L32.6 25.5L30.71 28.69L27.1 29.5L27.44 33.2L25 36L27.44 38.79L27.1 42.49L30.71 43.31L32.6 46.5L36 45.03L39.4 46.49L41.29 43.3L44.9 42.48L44.56 38.79L47 36ZM33.38 40.01L31 37.61C30.61 37.22 30.61 36.59 31 36.2L31.07 36.13C31.46 35.74 32.1 35.74 32.49 36.13L34.1 37.75L39.25 32.59C39.64 32.2 40.28 32.2 40.67 32.59L40.74 32.66C41.13 33.05 41.13 33.68 40.74 34.07L34.82 40.01C34.41 40.4 33.78 40.4 33.38 40.01Z" fill="#4F46E5"/>
</svg>
