<svg width="85" height="85" viewBox="0 0 85 85" fill="none" xmlns="http://www.w3.org/2000/svg">
<circle cx="42.5" cy="42.5" r="42.5" fill="#FACC15"/>
<path d="M43 43C47.6042 43 51.3334 39.2709 51.3334 34.6667C51.3334 30.0625 47.6042 26.3334 43 26.3334C38.3959 26.3334 34.6667 30.0625 34.6667 34.6667C34.6667 39.2709 38.3959 43 43 43ZM43 47.1667C37.4375 47.1667 26.3334 49.9584 26.3334 55.5V57.5834C26.3334 58.7292 27.2709 59.6667 28.4167 59.6667H57.5834C58.7292 59.6667 59.6667 58.7292 59.6667 57.5834V55.5C59.6667 49.9584 48.5625 47.1667 43 47.1667Z" fill="white"/>
</svg>
